<svg xmlns="http://www.w3.org/2000/svg" xmlns:xlink="http://www.w3.org/1999/xlink" preserveAspectRatio="xMidYMid meet" version="1.0" viewBox="53.2 124.9 455.0 79.6" zoomAndPan="magnify" style="fill: rgb(0, 0, 0);" original_string_length="12662"><g><g id="__id139_sa1n12rap" style="fill: rgb(0, 0, 0);"><path d="M431.47,146.63c-0.21-0.06-0.28-0.22-0.32-0.39c-0.16,0.08-0.32,0.13-0.48,0.22L431.47,146.63z" style="fill: inherit;"/><path d="M478.9,128.68c0.03,0,0.05-0.01,0.09-0.01c-0.09-0.16-0.2-0.32-0.22-0.52 C478.66,128.48,478.66,128.48,478.9,128.68z" style="fill: inherit;"/><path d="M466.44,132.53c-0.22-0.15-0.43-0.32-0.63-0.52C465.83,132.22,466.09,132.38,466.44,132.53z" style="fill: inherit;"/><path d="M437.98,147c-0.54-0.19-1.1-0.43-1.67-0.66C436.53,146.82,437.18,147.27,437.98,147z" style="fill: inherit;"/><path d="M468.11,133.22c-0.44-0.25-1.14-0.45-1.67-0.68C466.95,132.89,467.51,133.1,468.11,133.22z" style="fill: inherit;"/><path d="M502.66,130c-0.32-0.23-0.68-0.45-1.08-0.63c-0.04,0.12-0.11,0.19-0.12,0.35L502.66,130z" style="fill: inherit;"/><path d="M60.84,198c0.53-0.61,0.47-1.01,0.12-1.4C61.01,196.98,60.99,197.43,60.84,198z" style="fill: inherit;"/><path d="M79.33,191.27c-0.13,0.13-0.25,0.29-0.36,0.46C79.25,191.52,79.43,191.31,79.33,191.27z" style="fill: inherit;"/><path d="M65.21,186.93c-0.11-0.21-0.24-0.37-0.38-0.5C64.82,186.62,64.93,186.79,65.21,186.93z" style="fill: inherit;"/><path d="M237.75,165.92l-0.59-0.52C237.26,165.67,237.48,165.83,237.75,165.92z" style="fill: inherit;"/><path d="M269.46,161.33c0.1-0.01,0.19-0.02,0.28-0.03C269.65,161.31,269.56,161.32,269.46,161.33z" style="fill: inherit;"/><path d="M270.41,161.25c-0.23,0.02-0.44,0.04-0.66,0.06C270.04,161.3,270.29,161.32,270.41,161.25z" style="fill: inherit;"/><path d="M503.49,133.11c0.98-0.85,3.18-0.91,3.38-2.1l-4.21-1.01C504.09,131.04,504.7,132.41,503.49,133.11z" style="fill: inherit;"/><path d="M160.84,201.26c1.28,0.07,1.95-0.03,2.3-0.24c-0.79,0.06-1.59,0.09-2.36,0.18L160.84,201.26z" style="fill: inherit;"/><path d="M191.64,194.17c-0.04,0.03-0.09,0.07-0.13,0.1c0.07,0,0.12-0.04,0.19-0.04L191.64,194.17z" style="fill: inherit;"/><path d="M158.44,202.14c-0.17,0.16-0.36,0.32-0.47,0.55C158.45,202.71,158.51,202.47,158.44,202.14z" style="fill: inherit;"/><path d="M425.4,152.01c-0.17,0.11-0.31,0.21-0.53,0.32C425.11,152.23,425.27,152.13,425.4,152.01z" style="fill: inherit;"/><path d="M189.84,192.27l1.8,1.9c0.29-0.25,0.59-0.5,0.99-0.79C193.13,192.08,190.84,191.96,189.84,192.27z" style="fill: inherit;"/><path d="M158.44,202.14c0.58-0.55,1.4-0.82,2.35-0.94l-0.92-1.05C157.3,199.92,158.28,201.33,158.44,202.14z" style="fill: inherit;"/><path d="M56.81,194.58c1.31,0.35-0.69,3.32,1.21,2.67c0.17-0.93,0.35-1.88,0.56-2.84c0.23,1.04,1.76,1.5,2.38,2.2 c-0.14-1.05-1.09-1.5-1.91-2.06c-0.83-0.58-1.58-1.3-1.2-3.13c-0.09-1.34,1.75-2,2.72-2.19c-2.08,0.65-0.81-1.72-0.27-2.75 c1.62,0.22,3.44-1.09,4.54-0.06c0.02-0.51,0.93-1.12,1.68-1.18l0.29,0.61c1.32-1.13-0.74-0.42-0.59-1.22 c1.03-0.68,3.31,0.18,5.1-0.52c-1.81,0.71-3.1,2-4.07,3.21c1.79-0.05,1.93,0.85,1.61,1.93c-0.3,1.11-1.01,2.44-1.02,3.38 c2.06-1.7,2.66-3.13,4.43-4.9c1.5,0.3,1.76,1.53,1.61,2.69c-0.16,1.15-0.68,2.32-0.95,2.51c0.92-0.85,1.9-1.86,2.76-2.89 c0.85-1.03,1.65-1.94,2.22-2.44c-1.21,2.95-0.7,3.71-1.67,6.17c2.11,1,2.05-0.86,2.72-2.04c-0.46,0.35-1.22,0.69-1.52,0.22 c2.24-0.25,1-4.15,1.88-6.14c1.97,0.73,5.38,0.68,5.5,3.1l-0.39-2.52c2-0.88,1.26,1.15,1.69,1.93c0.56-1.81-0.79-4.23,2.78-5.3 c-0.14,4.15,3.27,0.02,3.48,3.79c1.65-0.35,2.29-2.51,4.11-2.16c1.04,1.02,0.4,2.31-0.58,3.27c-0.98,0.99-2.31,1.66-2.84,1.38 c-2.37,0.27,0.18-1.74-0.77-1.63c-0.74,0.43-1.45,0.9-2.16,1.34c1.32,0.63,3.85,1.36,3.66,3.1c2.23-0.94-1.97-1.65,0.49-2.79 l1.58,0.84c2.51-1.08-0.69-2.85,2.68-3.48c-1.11,0.95-0.18,0.91,0.99,0.98c1.18,0.07,2.64,0.3,2.55,1.66 c0.1-3.45,6.14-0.47,6.94-3.17l-1.84-0.8l0.38,1.52c-2.01,0.07-3.67,0.96-5.71,0.42c1.6-1.28-0.59-2.85,1.3-3.99 c3.62-2.05,0.95,1.82,1.46,1.8l2.89-1.8l-1.94-1.46c2.26-0.61,5.39-0.67,8.54-0.32c4.56,2.23-0.66,1.87,2.55,3.92 c1.54-0.65,1.23-1.51,3.35-1.12c-1.09-1.04-2.08,0.3-2.87,0.11c-0.9-2.23,3.89-0.76,3.82-2.8c0.83,0.87,0.59,1.71-0.16,2.55 c3.65-0.63,7.13,0.08,8.23,2.82l1.8-2.47c6.1,1.52-4.45,1.98,0.59,4.12c2.12,0.45,4.22,0.55,5.27-0.4l-1.85-0.27 c1.57-1.28,1.57-2.3,3.96-2.99c1.6,0.44,0.54,2.07,2.66,0.85c4.8,2.03,1.05,4.16,0,6.47c3.43,1.77-2.38,4.76,0.17,3.93l-0.58-0.65 l4.13-3.01c-3.18-3.3-1.7,2.51-2.76-0.55l-2.05-0.45c0.81-1.41,5.53,0.2,6.17-1.42c-0.06,0.87-0.82,2.8-3.01,2.65l0.92,3.37 c1.22,0.46,2.3-1.58,2.82-0.05c1.62,2.3-3.13,2.96,1.36,4.35c4.85,1.31,5.04-2.69,8.37-1.73c-0.26-0.76-1.11-0.79-2.15-1.03 c1.24-0.94-0.59-2.08,1.38-2.66c0.79,2.29,4.36,2.61,7.13,2.91c-0.87,1.08,0.75,2.47-0.2,3.03c1.43-0.1,2.77-0.3,3.49-1.2 c-5.41-2.33,5.68-1.12,1.58-3.84c4.39,0.67,4.97,2.75,7.59,4.22c-0.27,0.64-5.26,0.72-1.46,2.13c4.82-1.72-0.41-3.26,3.44-5.54 l-2.74-1.15c-0.01-2.81,5-0.09,5.81-0.61c1.67,0.91-2.53,0.48-1.05,2.57c2.54,0.94,4.09-0.67,5.65,0.56 c-1.86,1.69-0.73,1.07-2.8,2.54c6.23,0.67-0.58,2.15,4.05,3.87c1.55-0.19,0.77-1.93,3.18-1.26c-1.22-2.18-0.97-2.81-4.89-3.32 c1.69-2.77,5.09,1.28,8.06-0.21c-2.19-0.46-0.63-0.66-3.07-0.47c-0.06-2.49-0.89-2.96,1.52-5.02c-2.62,0.41-4.01,2.91-7.57,1.79 c-0.71-2.61,4.68-1.42,5.08-4.66c1.99-1.45,6.22,0.39,8.13,1.77c1.87-0.84,3.89-1.17,5.81-1.64c1.93-0.49,3.76-1.1,5.22-2.46 c2.5,1.15,9.06-1.24,13.85-0.25c0.69,1.52,5.95,1.07,2.91,2.62c0.44-0.47,4.49-0.69,3.45-2.02c-0.42,0.47-0.87,0.08-1.74,0.15 l0.81-1.8c2.33,0.77,4.94-1.46,7.16-0.43c0.37,0.72-0.68,0.97-1.63,1.25c-0.95,0.28-1.82,0.55-1.06,1.42 c2.18-2.71,10.84-3.97,13.65-3.01c1.87,0.29,2.2,2.54,2.99,2.75c1.05-0.11,2.1-0.2,3.14-0.35c0.41,0.7,0.51,1.57,1.15,2.44 c1.59,0.4,2.6-0.42,3.54-0.9c4.22,1.18,2.17,3.16,0.13,4.8l-2.4-0.6c-1.65,1.14-4.15,0.87-2.59,2.82c1.19-0.3,1.1-1.15,1.49-1.66 l1.46,1.08c1.35-0.98,5.16-1.71,4.63-3.26c2.9,0.94,6-0.76,8.6,0.32c-1.8-0.88,0.3-1.71-0.32-2.91l-3.02-0.21 c2.35-0.65,5.64-2.14,7.98-1.32c-0.17,1.03-0.23,1.37,1.01,2.22c-1.73-1.19,3.95-2.24,0.31-3.6c-1.21,0.69-2.37,1.04-4.03,1.05 c-1.29-2.06,1.27-2.57,2.58-3.95c1.75-0.7,5.2-1.71,7.51-2.81c1.58,0.31,2.34,2.69,4.76,0.92c-3.57-1.63,2.69-3.81,3.23-6.08 c2.62,0.58,3.77-2.36,6.02-0.91c-0.91,0.89-4.73,1.37-5.49,3.11c0.07,1.54,1.41,3.9-2.3,5.22c4.69,0.14,2.52-1.68,4.53-2.59 l-1.54,0.43c0.63-0.71-0.87-1.68,0.51-1.9c5.43-0.18,6.6,1.29,10.52,2.63c-0.98-0.98,0.52-2.26,1.35-2.47 c3.7,0.84,0.46,3.23,2.96,5.16c0.99-1.59,3.42-1.58,2.44-2.55c1.37-0.26,0.76,0.47,1.82,0.74c0.68-1.42,1.59-2.33,3.5-2.61 c-0.06,0.69-0.16,1.72-2.05,1.67c2.15,0.21,3.29,2.37,2.61,3.78l-3.5-0.3c-1.27,1.8,3.24,0.14,3.37,1.67 c-1.43,0.6-2.71-0.17-3.58,0.4c1.22,1.47,3.87-0.58,5.55-1.04c2.73-0.19,2.02,1.57,2.21,2.42c4.11-3.39-5.78-1.99-1.95-5.18 c1.28-2.15,5.37-2.61,8.15-3.5c-2.82-1.68-0.27-3.07,2.51-4.32c-3.81,0.64-1.42-2.28-5.64-0.09l-0.39-1.69 c1.91-0.3,4.29,0.02,6.2-0.3c-0.31,0.53,0.2,0.84-0.37,1.23l5.52-1.81l-0.37,1.23c3.52-0.47,8.05,0.02,10-1.01 c-1.64,0.49-3.42-0.91-1.75-1.74c0.88-0.93,2.56-2.11,4.18-2.25c1.21,1.79,7.19,0.58,3.78,3.28c4.69-1.95,2.81-1.96,7.25-4.07 l-3.02,1.12c-0.69-1.48,1.4-4.59-1.79-4.99c3.32-1.67,0.55-4,5.19-5.27c2.09,0.57,0.04,3.26-2.53,4.17 c1.35-0.13,2.73,0.49,3.9-0.86c1.25,1.09-2.07,2.76-1.83,3.25c2.44-0.38-0.21-0.84,1.99-1.72c3.66-2.55,3.06,2.14,6.67,0.28 c-0.82,0.24-2.4,0.03-1.54-0.9c5.15-0.96,2.56-2.12,6.15-3.62c2.54,1.85,2.08,4.47,5.55,4.35l-1.89,0.33 c1.53,0.9,3.12,1.11,4.47,0.83c6.65-3.27,11.83-7.79,18.83-10.81l-2.51,1.02c-1.02-0.63,2.01-1.33,1.82-2.18l1.81,0.75 c0.17-1.73-3.94-0.95-3.24-2.71c0.26,0.16,0.8,0.12,1.09-0.07l-1.6-0.24c3.51-0.05,5.74-3.47,8.76-1.23 c-6.62,1.42-0.24,4.98-6.6,6.92c3.33-1.24,0.91,1.66,1.38,2.32c1.87,0.05,0.67-1.42,2.79-1.21c0.15,1.2-4.03,3-1.94,3.55 c-0.09-1.88,1.77-1.82,2.44-3.24c1.58,0.25,0.16,1.19,0.91,1.66c0.82-0.22,1.18-1.11,1.96-0.97l-0.38,1.22 c4.43,0.97,0.99-1.94,5.83-2.19c-0.1-1.53-1.5-0.95-3.44-0.34c-1.54-3.17,5.58-4.57,4.65-8.12c4.48-1.21-0.99,1.57,3.02,1.94 c2.46,1.96-2.49,2.82-3.22,4.59c1.4,0.26,2.8,0.56,4.19,0.85c-0.9,3.11-3.5,2.53-3.8,5.3c2.95-0.32,2.49-0.96,5.33-2.45 c-5.16-1.52,1.85-2.12-1.33-4.57c2.36,0.42,1.74,1.13,5,0.66c-1.98,0.94,0.24,2.39-2.48,2.83c4.36-0.85,3.09-1.32,7.47-2.1 c1.12-2.25-4.82-2.12,0.32-4.29c1.15-0.17,1.02,0.64,0.35,0.72c3.91,0.32-1.1-2.47,1.17-3.84c1.65-0.47,2.35,0.27,1.71,0.85 c2.38-1.44,0.83-2.66,2.46-3.31l-0.8-0.17c0.65-0.68-1.67-3.41,1.99-3.95c2.68-0.29,1.96,0.96,2.1,1.65c2-0.95,3.66-0.51,5.16,0.1 c-0.18-0.39-0.06-0.82,0.57-0.89c3.48-0.99,2.19,1.57,3.53,1.76c5.12,0.6-0.96-3.83,4.69-4.34c-2.22-0.09-4.42-0.1-6.63-0.13 c0.19-1.03,0.2-2.57-1.23-2.41c0,1.55-2.21,3.04-4.42,3.04c-0.83-1.73,5.72-2.52,1.82-4.1c1.36,0.18,3.17-0.48,4.83-0.46 c-1.49,2.03,5.32-0.1,2.64,2.26c7.2-0.96,8.31,0.22,14.91-1.44c-0.57,1.19-4.65,4.31-8.11,3.72l-0.35-1.04 c-4.21,1.57,3.42,0.97,2.74,2.83c2.56-1.59,5.53-1.36,8.63-0.92c3.11,0.48,6.34,1.25,9.58,0.66c-1.15-0.95,0.14-1.54,0.41-2.54 c-2.62,0.28-2.15,0.68-4.1-0.52c0.35-1.35,1.93-0.87,2.75-1.83c0.68-1.49-1.99,0.01-2.94-0.76c2.51-0.82,2.27-1.02,3.76-2.27 c1.4,1.17,1.22,1.85,2.29,3.17c6.21,0.37,5.57-2.37,10.62-1.64c-2.79-0.4,1.26,1.56-1.77,0.96l1.68,0.23 c-1.1,0.5-2.39,0.83-3.69,1.15c-1.3,0.34-2.61,0.63-3.76,0.96c-2.3,0.67-3.96,1.51-3.59,3.28c1.74-0.15,3.24-0.71,4.85-1.24 c1.61-0.54,3.33-1.03,5.47-0.96l-0.2,0.66c3.08,0.27-0.01-0.86,0.74-1.45c3.54-1.04,4.31,3.53,6.84,1.19 c-1.17-0.28-2.34-0.48-3.52-0.72c2.75-1.33-0.78-0.28-0.02-2.6c4.91-1.57,13.15,0.28,20.19-0.63c-1.83-1.44-2.39-1.55-4.98-1.92 c1.5-3.01,2.53-2.45,1.52-5.28l-3.22-0.49l0.23-2.92c0.9,0.04,1.77,0.3,2.53,0.66c0.65-1.78,4.89,1.09,5.31-0.62l-2.81-0.06 c-1.2-1.65,2.07-1.15,4.1-1.43c-1.64-2.09-6.13-0.58-10.1-0.84c0.18,1.08-3.93,2.98-0.12,3.46c-0.16,1.19-2.48,1.66-3.98,1.57 c0.84-0.55-2.72-3.41,0.9-4.02c-3.52,1.14-1.52-0.08-5.37,0.3c0.57-0.83-6.61-0.24-6.07-2.77c-1.25,1.03-0.09,3.74-4.46,3.69 c1.02,1.79,5.84,2.24,2.53,3.99l2.15-1.08c2.98,0.93-0.89,1.78,2.99,2.66c-1.14-0.16-3.51,0.72-3.98-0.56 c0.43,1.88-1.03,2.28-2.63,2.55c-1.6,0.25-3.33,0.5-3.44,1.85c-0.82-1.12-1.95-1.25-4.07-0.97c0.3-1-0.88-1.99,0.78-2.67 c1.37,0.32,2.37-0.08,3.86,0.77c-0.77-3.68-5.53-1.27-9.06-1.99c0.5,0.29,0.64,0.64-0.33,1.19c-2.16-0.52-6.96-1.08-5.63-2.86 c-3.65,0.23-7.27,0.6-10.9,0.9c-0.1-0.86,1.54-0.43,2.19-0.74c-2.04,0.04-4.06,0.16-6.08,0.27c-1.49-1.07,1.99-1.31,2.54-2.49 l-4.39,0.38l0.54-1.18c-0.52,0.41-2.04,0.79-3.6,0.85c-1.56,0.06-3.15-0.15-3.84-1.02c-4.76,1.01-4.31,4.71-10.89,3.76 c0.03-1.88,3.56-1.07,4.94-2.44c-1.33-0.52-5.02,1.24-5.87-0.46c-4.52,1.58-3.6,4.84-5.59,6.94c-3.7,0.62-0.61-1.52-0.82-2.03 c-1.12,0.03-2.48,3.67-3.81,1.3c-1.62,1.58-2.4,3.31,0.33,3.58c-1.98,0.21-4.62,1.54-5,2.41c1.2-2.96-2.38-0.76-2.93-2.97 c-3.05-0.08-9.68,0.32-11.96,3.69l0.34-3.1l-3.38,0.9c-2.86-1.35,2.7-2.43,4.42-2.84c-4.73,0.44-7.81,1.17-11.99,1.97 c1.33,0.41,0.71,1.15,1.45,1.95c-1.22,1.47-3.34,0.93-4.76,1.55c-0.49-0.65-0.42-1.34,0.7-1.77l-2.8,0.89 c-0.1-1.88-1.5-1.6,1.12-3.34l-2.55,1.05c-3.01,0.05-0.14-1.53,0.47-2.27l-4.67,0.54c-1.46,1.32,1.23,1.45-1.84,2.55 c-4.55-0.84-9.81,0.82-14.69,1.23l3.69,1.06c-2.98,0.08-1.83,2.9-2.48,4.33c-2.7,0.23-6.25,1.06-8.64,0.76 c2.28-1.92,0.81-3.85-1.81-4.66c-5.4,0.82-3.47,3.74-6.26,5.36c1.62-4.09-3.96-0.51-3.81-2.59c-6.76,1.45-13.29,4.05-20.24,5.25 c0.23,0.5,2.32,0.68,1.2,1.45c-2.45,1.05-3.94-0.21-4.41-0.87c-3.23,0.91-4.92,2.4-5.82,3.66c1.37-0.61,1.59-0.11,1.5,0.93 c-3.24,0.91-2.75-1.7-5.57,0.52c-1.15-1.82,3.29-1.56,2.67-3.42c-2.92,0.35-4.59,1.47-6.54,2.79c-0.68-1.16,1.89-0.62,0.13-1.38 c-2.16,0.83-4.54,1.75-6.79,2.62c-2.25,0.88-4.36,1.71-5.99,2.27l-1.14-1.5c-2.13,0.41-3.5,0.97-4.39,1.86 c-1.25-0.48-0.4-1.02,0.69-1.39c-2.89,0.28-6.23,2-7.85,2.38c0.14-1.03,1.61-0.37,1.99-1.23c-3.63,0.09-7.82,3.83-10.41,1.95 c0.28-0.3,0.62-0.39,0.94-0.42c-2.67,0.26-5.12,0.75-7.64,1.27c-1.26,0.27-2.53,0.54-3.85,0.8c-1.32,0.23-2.68,0.42-4.12,0.56 c-2.7-0.8-3.08-0.13-3.45,0.75c-0.37,0.89-0.72,2-3.34,1.98c-0.23-4.46-7.09,0.07-9.32-0.78l0.71,0.64 c-2.53,1.81-6.12,0.31-7.88-0.98c-1.92-0.16-4.32-0.23-6.73-0.07c-2.41,0.1-4.83,0.5-6.82,1.29l0.82-0.9 c-3.28,0.98-5.18-0.5-8.5,0.43c0.11-0.33,1.36-0.79,0.13-1.19c-7.7-1.24-15.62-1.68-23.67-2.13c-8.04-0.46-16.19-0.92-24.22-2.18 c-7.68-1.23-15.93-2.48-24.54-3.5c-8.64-1.01-17.53-1.82-26.8-2.02c-4.63-0.08-9.29-0.04-13.99,0.28 c-2.33,0.12-4.7,0.39-7.02,0.62c-2.35,0.32-4.67,0.59-6.99,1.04c-9.26,1.59-18.31,4.52-26.22,8.63c0,0-0.14,0.35-0.36,1.02 c-0.22,0.66-0.51,1.62-0.82,2.77c-0.31,1.15-0.64,2.5-0.92,3.96c-0.28,1.47-0.49,3.11-0.62,4.74c-0.13,1.64-0.18,3.28-0.1,4.91 c0.09,1.64,0.29,3.22,0.59,4.67C54.4,190.84,55.44,193.21,56.81,194.58z" style="fill: inherit;"/><path d="M422.52,155c-0.14-0.01-0.28-0.02-0.45-0.04C422.25,155.01,422.39,155.01,422.52,155z" style="fill: inherit;"/><path d="M350.64,165.68c0.34-0.05,0.67-0.15,1-0.26C351.3,165.46,350.97,165.52,350.64,165.68z" style="fill: inherit;"/><path d="M290.5,182.57l1.27-0.36C291.21,182.31,290.81,182.43,290.5,182.57z" style="fill: inherit;"/><path d="M194.58,193.61c0.38,1.3-2.47,3.33-0.34,4.65c3.95,0.45,4.93-0.73,5.91-1.86c0.98-1.14,1.97-2.23,6.05-1.77 l-4.02-1.78c0.03,2.27-2.98,3.26-6.17,3.15l-0.8-1.73c0.58-0.42,1.2-0.77,1.84-1.06C195.87,192.9,195.96,194.22,194.58,193.61z" style="fill: inherit;"/><path d="M197.33,193.3c-0.06-0.04-0.13-0.08-0.18-0.13c-0.03,0.02-0.07,0.03-0.11,0.04 C197.13,193.24,197.21,193.25,197.33,193.3z" style="fill: inherit;"/></g></g></svg>